<svg xmlns="http://www.w3.org/2000/svg" viewBox="0 0 100 100">
  <defs>
    <linearGradient id="grad1" x1="0%" y1="0%" x2="100%" y2="100%">
      <stop offset="0%" style="stop-color:rgb(66,185,131);stop-opacity:1" />
      <stop offset="100%" style="stop-color:rgb(44,62,80);stop-opacity:1" />
    </linearGradient>
  </defs>
  <path fill="url(#grad1)" d="M85.7,28.1c-5.5-9.5-16.1-15.3-27.9-15.3c-11.8,0-22.4,5.8-27.9,15.3C24.3,37.6,24.3,50,29.8,59.5
    c5.5,9.5,16.1,15.3,27.9,15.3c11.8,0,22.4-5.8,27.9-15.3C91.2,50,91.2,37.6,85.7,28.1z M57.8,68.8c-8.3,0-15-6.7-15-15
    s6.7-15,15-15s15,6.7,15,15S66.1,68.8,57.8,68.8z"/>
  <path fill="#FFFFFF" d="M57.8,40.8c-7.2,0-13,5.8-13,13s5.8,13,13,13s13-5.8,13-13S65,40.8,57.8,40.8z M57.8,62.8
    c-4.4,0-8-3.6-8-8s3.6-8,8-8s8,3.6,8,8S62.2,62.8,57.8,62.8z"/>
  <polygon fill="#FFFFFF" points="40.2,28.1 34.5,37.6 40.2,47.1 45.9,37.6 "/>
  <text x="10" y="90" font-family="Verdana" font-size="10" fill="#333333">Dragonbane</text>
</svg>
